Coordinates
version=1
nRows=6
nColumns=36
inDegrees=yes

Units are S.I. units (second, meters, Newtons, ...)
If the header above contains a line with 'inDegrees', this indicates whether rotational values are in degrees (yes) or radians (no).

endheader
time	pelvis_tilt	pelvis_list	pelvis_rotation	pelvis_tx	pelvis_ty	pelvis_tz	hip_flexion_r	hip_adduction_r	hip_rotation_r	knee_angle_r	knee_angle_r_beta	ankle_angle_r	subtalar_angle_r	mtp_angle_r	hip_flexion_l	hip_adduction_l	hip_rotation_l	knee_angle_l	knee_angle_l_beta	ankle_angle_l	subtalar_angle_l	mtp_angle_l	lumbar_extension	lumbar_bending	lumbar_rotation	arm_flex_r	arm_add_r	arm_rot_r	elbow_flex_r	pro_sup_r	arm_flex_l	arm_add_l	arm_rot_l	elbow_flex_l	pro_sup_l
      0.00000000	      1.24156811	     -1.38164667	     -2.85322877	     -0.94897918	      1.29728834	     -0.05605282	     -7.70876715	     -0.20511170	     -0.15586271	      0.73137164	      0.01276484	      5.05529079	     -8.83242025	     -6.09514843	     -5.10286702	     -3.93654390	      5.46036497	      6.89209513	      0.12028975	     12.07985063	     -3.51082396	     -6.09514843	     -9.35173276	      1.59964560	     -1.91686143	      6.37333760	     -6.73833298	     26.08831504	     20.05834811	     68.07945742	      3.16243343	     -6.95855630	     20.26199043	     22.23485100	     63.39053729
      0.00416670	     -1.60097944	     -0.88627656	     -1.57356244	     -0.94777568	      1.29535870	     -0.05712264	     -4.88367276	     -0.15711853	     -0.11845867	      0.52910628	      0.00923465	      6.33588739	     -6.70901923	     -6.67661264	     -2.52436729	     -3.43550356	      7.57998776	      5.05877316	      0.08829225	     11.17306761	     -2.21403425	     -6.67661264	     -5.70163933	      0.92860228	     -2.36143900	      5.02388883	     -5.60099928	     23.01736547	     19.27399787	     65.69091195	      2.90960388	     -6.22109819	     17.85241470	     21.86805843	     62.20642648
      0.00833330	     -2.64709503	     -0.38089371	     -1.12989472	     -0.94824990	      1.29081572	     -0.05629495	     -3.81067757	     -0.50862604	     -1.12842535	      0.35293150	      0.00615982	      7.39109752	     -6.57313757	     -7.08616579	     -1.59636566	     -2.99962353	      7.88561203	      4.29633884	      0.07498526	     11.19961148	     -1.29383680	     -7.08616579	     -5.01470057	      0.02266188	     -2.10788467	      3.83133901	     -3.99902834	     10.21671677	     20.32729715	     81.74989457	      2.82892677	     -5.68937593	     11.40759843	     22.45509381	     71.36071522
      0.01250000	     -2.14593660	     -0.23053333	     -1.03953089	     -0.94885870	      1.29514751	     -0.05641778	     -4.36129746	     -0.71627773	     -1.18107197	      0.27890458	      0.00486780	      7.93486190	     -6.65208070	     -7.11816148	     -2.67826131	     -2.83465539	      7.93099600	      2.90275780	      0.05066268	     10.89678688	     -0.90377309	     -7.11816148	     -6.02115881	     -0.45174315	     -2.07808471	      3.91824974	     -3.60324018	      9.40162553	     20.43543840	     81.12615993	      3.20830880	     -5.83176218	     10.78610701	     22.56023980	     71.02784810
      0.01666670	     -2.05336284	     -0.23581183	     -0.80909227	     -0.94947043	      1.29462444	     -0.05633881	     -4.49396927	     -0.65501964	     -1.09436797	      0.24540889	      0.00428319	      8.32551531	     -6.74960052	     -7.19019741	     -3.05845854	     -2.85849970	      7.93664497	      2.18639053	      0.03815971	     10.95004652	     -0.53909395	     -7.19019741	     -6.45870540	     -0.63545901	     -2.21982922	      3.75058029	     -3.28980012	      8.58944895	     20.79886022	     79.18939470	      3.49718565	     -5.87958274	     10.51695612	     22.98415939	     70.13690583
      0.02083330	     -1.49019626	     -0.26054637	     -0.82645137	     -0.94986134	      1.29206165	     -0.05581229	     -5.14122724	     -0.60164710	     -0.81784888	      0.23075819	      0.00402749	      8.50617613	     -7.06347803	     -7.33905601	     -3.87770979	     -2.87813673	      8.21327021	      1.74377051	      0.03043454	     10.87908880	     -0.78871489	     -7.33905601	     -7.39881805	     -0.69318249	     -1.86776063	      3.71324475	     -3.26127261	      6.41267626	     21.65698097	     86.43255175	      3.71231101	     -6.02866602	      9.98659048	     23.62318429	     76.91140617
